<!-- Generated by IcoMoon.io -->
<svg version="1.1" xmlns="http://www.w3.org/2000/svg" width="464" height="1024" viewBox="0 0 464 1024">
<g id="icomoon-ignore">
</g>
<path d="M409.868 582.124c8.643-4.758 15.97-11.575 21.327-19.838 5.357-8.266 8.577-17.727 9.373-27.535l21.417-260.072c1.111-13.369-0.595-26.821-5.010-39.494s-11.438-24.285-20.621-34.091l-65.993-70.458c-3.631-3.896-6.41-8.501-8.161-13.525s-2.435-10.355-2.009-15.656l3.168-38.087-170.796-13.99-3.168 38.087c-0.437 5.299-1.979 10.449-4.527 15.12s-6.045 8.761-10.269 12.008l-76.67 58.836c-10.658 8.188-19.483 18.505-25.91 30.29s-10.314 24.777-11.411 38.147l-21.449 260.072c-0.811 9.796 0.821 19.639 4.752 28.654s10.036 16.92 17.774 23.013c-8.643 4.753-15.968 11.568-21.32 19.836-5.352 8.266-8.564 17.73-9.348 27.535l-27.341 331.606c-1.288 15.767 3.754 31.393 14.019 43.455s24.913 19.569 40.727 20.876l281.968 23.082c7.83 0.645 15.711-0.255 23.193-2.648 7.481-2.387 14.417-6.229 20.41-11.292s10.926-11.258 14.518-18.223c3.592-6.964 5.772-14.568 6.415-22.375l27.341-331.606c0.836-9.793-0.771-19.643-4.679-28.666-3.908-9.029-9.996-16.95-17.72-23.060z"></path>
<path d="M192.61 49.435l-2.422 29.367 170.759 13.994 2.422-29.366-170.759-13.995z"></path>
<path d="M434.771 207.884l-65.993-70.521c0 0-42.549 1.832-9.505 53.847 28.165 43.992 77.24 37.14 75.498 16.675z"></path>
<path d="M3.707 932.457c-1.288 15.762 3.754 31.393 14.019 43.455s24.913 19.569 40.727 20.876l281.968 23.082c7.83 0.645 15.711-0.255 23.193-2.648s14.417-6.229 20.41-11.292c5.994-5.069 10.927-11.258 14.518-18.223 3.592-6.97 5.772-14.574 6.415-22.375l-401.249-32.875z"></path>
<path d="M422.445 213.979c7.37 7.877 13.008 17.202 16.554 27.377s4.921 20.976 4.039 31.711l-21.417 260.104c-0.557 6.686-2.763 13.132-6.422 18.762s-8.658 10.273-14.551 13.514l-24.934 13.769 22.336 17.657c5.285 4.153 9.456 9.538 12.143 15.688s3.805 12.871 3.254 19.552l-27.341 331.606c-0.88 10.744-6.001 20.706-14.24 27.693s-18.92 10.427-29.702 9.572l-281.968-23.088c-5.355-0.419-10.573-1.89-15.358-4.322s-9.042-5.782-12.528-9.855c-3.486-4.073-6.133-8.792-7.79-13.889-1.657-5.092-2.291-10.461-1.867-15.796l27.341-331.606c0.546-6.687 2.744-13.142 6.398-18.777s8.65-10.285 14.544-13.533l24.934-13.767-22.177-17.654c-5.285-4.152-9.456-9.544-12.143-15.693s-3.805-12.866-3.254-19.552l21.449-260.072c0.889-10.736 4.017-21.17 9.184-30.632s12.257-17.746 20.819-24.32c25.345-16.327 91.877 24.318 169.783 30.697s126.631-13.327 142.916-5.148z"></path>
<path d="M279.371 219.158c-77.874-6.316-144.469-47.056-169.814-30.728 44.354 24.317 95.045 39.382 168.579 45.414s144.31-19.864 144.31-19.864c-16.284-8.18-65.201 11.59-143.075 5.179z"></path>
<path d="M39.19 501.937c-0.811 9.796 0.821 19.64 4.752 28.654s10.036 16.92 17.774 23.013l348.151 28.424c8.643-4.758 15.97-11.57 21.327-19.837s8.577-17.726 9.373-27.535l-401.377-32.718z"></path>
<path d="M366.939 16.853l-170.282-13.999c-7.132-0.586-13.388 4.702-13.973 11.812l-3.395 41.296c-0.585 7.11 4.723 13.349 11.855 13.935l170.282 13.999c7.132 0.586 13.388-4.702 13.973-11.812l3.396-41.296c0.584-7.11-4.723-13.349-11.856-13.935z"></path>
<path d="M199.786 63.525c-0.208-0.016-0.411-0.072-0.597-0.167s-0.351-0.225-0.487-0.384c-0.135-0.158-0.238-0.342-0.302-0.54s-0.088-0.407-0.071-0.614l3.992-49.962c0.034-0.419 0.233-0.807 0.554-1.080s0.737-0.407 1.157-0.373c0.42 0.033 0.81 0.232 1.083 0.552s0.408 0.735 0.374 1.154l-4.119 49.93c-0.024 0.402-0.201 0.78-0.496 1.056s-0.683 0.429-1.088 0.428z"></path>
<path d="M230.676 66.052c-0.208-0.016-0.411-0.072-0.597-0.167s-0.352-0.225-0.487-0.384c-0.136-0.158-0.238-0.342-0.302-0.54s-0.088-0.407-0.071-0.614l4.119-49.93c0.040-0.416 0.241-0.8 0.561-1.071s0.732-0.408 1.15-0.381c0.207 0.016 0.409 0.073 0.593 0.168s0.348 0.226 0.481 0.385c0.133 0.159 0.233 0.343 0.293 0.541s0.080 0.406 0.058 0.612l-4.214 49.93c-0.039 0.394-0.222 0.76-0.514 1.028s-0.673 0.419-1.070 0.425z"></path>
<path d="M261.535 68.705c-0.208-0.016-0.411-0.072-0.597-0.167s-0.352-0.225-0.487-0.384c-0.136-0.158-0.238-0.342-0.302-0.54s-0.088-0.407-0.071-0.614l4.119-49.93c0.048-0.413 0.251-0.793 0.569-1.062s0.725-0.409 1.142-0.39c0.208 0.016 0.411 0.073 0.597 0.167s0.352 0.225 0.487 0.383c0.135 0.159 0.238 0.342 0.302 0.54s0.088 0.407 0.071 0.615l-4.119 49.93c-0.016 0.208-0.073 0.41-0.168 0.596s-0.225 0.351-0.384 0.485c-0.159 0.135-0.343 0.238-0.542 0.302s-0.408 0.088-0.617 0.070z"></path>
<path d="M292.424 71.105c-0.208-0.016-0.411-0.073-0.597-0.167s-0.351-0.225-0.487-0.383c-0.135-0.158-0.238-0.342-0.302-0.54s-0.088-0.407-0.070-0.615l4.119-49.93c0.040-0.416 0.241-0.8 0.56-1.071s0.732-0.408 1.15-0.381c0.207 0.016 0.409 0.073 0.593 0.168s0.348 0.226 0.481 0.385c0.133 0.159 0.233 0.343 0.292 0.541s0.080 0.406 0.059 0.612l-4.119 49.93c-0.012 0.206-0.065 0.408-0.156 0.593s-0.22 0.35-0.376 0.486c-0.157 0.135-0.339 0.238-0.536 0.302s-0.405 0.088-0.612 0.071z"></path>
<path d="M323.153 73.632c-0.208-0.016-0.411-0.073-0.597-0.167s-0.352-0.225-0.487-0.383c-0.136-0.158-0.238-0.342-0.302-0.54s-0.088-0.407-0.071-0.615l4.119-49.93c0.054-0.41 0.26-0.785 0.575-1.054s0.721-0.41 1.135-0.399c0.208 0.016 0.411 0.073 0.597 0.167s0.352 0.225 0.487 0.383c0.135 0.158 0.238 0.342 0.302 0.54s0.088 0.407 0.071 0.615l-4.119 49.93c-0.012 0.209-0.066 0.414-0.16 0.601s-0.224 0.354-0.384 0.49c-0.16 0.136-0.346 0.238-0.547 0.3s-0.412 0.083-0.621 0.061z"></path>
<path d="M354.17 76.158c-0.208-0.016-0.411-0.072-0.597-0.167s-0.351-0.225-0.487-0.384c-0.135-0.158-0.238-0.342-0.302-0.54s-0.088-0.407-0.071-0.614l3.992-49.962c0.040-0.416 0.242-0.8 0.561-1.071s0.732-0.408 1.15-0.381c0.415 0.040 0.798 0.242 1.064 0.561s0.397 0.73 0.362 1.145l-4.087 49.962c-0.038 0.394-0.222 0.759-0.514 1.027s-0.673 0.419-1.070 0.425z"></path>
<path d="M91.878 415.057c-4.816-26.56-43.626-24.665-45.844 2.211l-6.97 84.669c-0.811 9.796 0.821 19.64 4.752 28.654s10.036 16.92 17.774 23.013c-8.643 4.753-15.968 11.568-21.32 19.836-5.352 8.266-8.564 17.73-9.348 27.535l-27.341 331.606c-1.288 15.762 3.754 31.393 14.019 43.455s24.913 19.569 40.727 20.876l72.868 5.969c8.028 0.656 16.099-0.537 23.591-3.485 7.492-2.953 14.204-7.575 19.617-13.521s9.383-13.052 11.603-20.769c2.221-7.722 2.631-15.847 1.202-23.744l-95.33-526.304z"></path>
<path d="M372.26 849.269c-0.503 6.087-2.805 11.886-6.616 16.673-3.81 4.781-8.958 8.333-14.792 10.2s-12.093 1.969-17.984 0.289c-5.892-1.675-11.152-5.058-15.116-9.714-3.964-4.662-6.453-10.387-7.154-16.452-0.7-6.070 0.42-12.209 3.219-17.64 2.799-5.437 7.152-9.918 12.508-12.888 5.355-2.965 11.473-4.283 17.581-3.785 8.19 0.673 15.776 4.56 21.093 10.811 5.316 6.246 7.928 14.342 7.262 22.505z"></path>
<path d="M273.764 729.671c-0.353 4.311-1.98 8.418-4.675 11.801-2.695 3.389-6.337 5.901-10.466 7.225s-8.558 1.397-12.728 0.209c-4.17-1.188-7.893-3.581-10.699-6.874-2.806-3.298-4.568-7.349-5.063-11.643s0.298-8.639 2.279-12.486c1.982-3.841 5.063-7.015 8.854-9.114s8.121-3.032 12.444-2.676c5.79 0.481 11.151 3.23 14.91 7.649 3.759 4.413 5.609 10.138 5.144 15.909z"></path>
<path d="M182.106 463.471c-4.33 0.201-8.621-0.882-12.334-3.112s-6.678-5.506-8.524-9.415c-1.845-3.909-2.486-8.276-1.843-12.548s2.542-8.259 5.458-11.456c2.915-3.197 6.715-5.461 10.921-6.506s8.627-0.824 12.707 0.635c4.079 1.459 7.633 4.090 10.213 7.562s4.069 7.627 4.281 11.943c0.14 2.871-0.289 5.741-1.262 8.446s-2.473 5.192-4.412 7.319c-1.939 2.127-4.28 3.852-6.89 5.075s-5.434 1.922-8.314 2.056z"></path>
<path d="M241.891 332.82c-3.069 0.153-6.115-0.606-8.751-2.179s-4.745-3.892-6.059-6.661c-1.314-2.769-1.774-5.865-1.321-8.895s1.797-5.857 3.863-8.125c2.066-2.268 4.761-3.873 7.742-4.613s6.117-0.581 9.008 0.457c2.892 1.038 5.409 2.907 7.233 5.372s2.874 5.414 3.016 8.474c0.19 4.090-1.254 8.088-4.016 11.118s-6.615 4.847-10.716 5.052z"></path>
<path d="M338.076 635.208c-0.149 1.782-0.825 3.474-1.941 4.871s-2.621 2.433-4.326 2.976c-1.706 0.543-3.535 0.571-5.256 0.079-1.722-0.487-3.259-1.477-4.417-2.84s-1.886-3.032-2.090-4.809c-0.205-1.771 0.122-3.564 0.939-5.154s2.089-2.897 3.654-3.768c1.564-0.866 3.352-1.256 5.137-1.109 2.398 0.198 4.617 1.341 6.173 3.168s2.321 4.198 2.128 6.585z"></path>
<path d="M173.966 882.303h-1.521c-2.426-0.164-4.795-0.809-6.97-1.895-2.175-1.081-4.114-2.585-5.703-4.424-1.563-1.827-2.746-3.943-3.48-6.235-0.734-2.286-1.005-4.696-0.796-7.089 0.295-3.542 1.617-6.913 3.805-9.72 2.188-2.8 5.147-4.905 8.516-6.059s7.002-1.307 10.455-0.436c3.453 0.871 6.577 2.727 8.992 5.335s4.013 5.867 4.603 9.369c0.59 3.502 0.144 7.094-1.283 10.347-1.427 3.259-3.774 6.025-6.752 7.971s-6.463 2.987-10.024 2.993l0.158-0.158zM173.966 848.070c-3.603 0.017-7.093 1.256-9.893 3.519s-4.743 5.409-5.508 8.916c-0.765 3.508-0.308 7.174 1.298 10.393 1.606 3.213 4.263 5.788 7.533 7.292 3.271 1.511 6.959 1.861 10.457 0.996s6.595-2.891 8.782-5.742c2.187-2.857 3.331-6.37 3.246-9.963-0.086-3.587-1.397-7.044-3.718-9.793-1.352-1.595-3.009-2.908-4.874-3.864-1.866-0.95-3.903-1.528-5.992-1.692l-1.331-0.062z"></path>
<path d="M369.917 512.738h-1.109c-3.518-0.29-6.778-1.959-9.065-4.64s-3.413-6.158-3.133-9.666c0.291-3.513 1.969-6.767 4.666-9.048s6.193-3.399 9.717-3.11c3.519 0.29 6.779 1.959 9.065 4.64s3.413 6.158 3.133 9.666c-0.301 3.513-1.973 6.768-4.657 9.064-2.413 2.019-5.467 3.116-8.617 3.095zM358.987 498.558c-0.157 2.148 0.325 4.293 1.387 6.168s2.656 3.396 4.581 4.371c1.926 0.975 4.098 1.361 6.244 1.11s4.168-1.129 5.815-2.523c1.099-0.928 2.004-2.064 2.663-3.341s1.058-2.671 1.176-4.103c0.118-1.432-0.049-2.872-0.49-4.239s-1.148-2.634-2.081-3.729c-0.968-1.064-2.139-1.925-3.444-2.532s-2.72-0.949-4.159-1.005c-1.434-0.121-2.877 0.041-4.248 0.477s-2.641 1.139-3.74 2.066c-1.098 0.927-2.002 2.061-2.658 3.337s-1.055 2.669-1.171 4.099l0.127-0.158z"></path>
<path d="M165.222 232.737h-0.475c-1.636-0.16-3.146-0.948-4.21-2.197s-1.599-2.862-1.493-4.497c0.080-1.228 0.519-2.407 1.262-3.39s1.759-1.728 2.922-2.144c1.163-0.416 2.421-0.484 3.622-0.196s2.291 0.92 3.136 1.817c0.846 0.897 1.409 2.021 1.623 3.234s0.066 2.461-0.424 3.591c-0.489 1.13-1.3 2.093-2.331 2.77s-2.239 1.040-3.474 1.043l-0.158-0.032zM161.388 226.232c-0.059 0.752 0.105 1.505 0.475 2.164s0.925 1.194 1.599 1.538c0.674 0.344 1.435 0.481 2.187 0.395s1.461-0.393 2.039-0.881c0.578-0.488 0.997-1.135 1.207-1.861s0.197-1.496-0.032-2.215c-0.23-0.719-0.668-1.354-1.26-1.825s-1.31-0.756-2.064-0.821c-0.505-0.048-1.013 0.006-1.497 0.157s-0.932 0.398-1.319 0.724c-0.386 0.326-0.704 0.727-0.933 1.178s-0.366 0.942-0.402 1.446z"></path>
<path d="M305.317 396.298h-1.331c-2.085-0.163-4.118-0.736-5.98-1.686s-3.517-2.259-4.869-3.85c-1.352-1.591-2.374-3.434-3.009-5.422s-0.866-4.080-0.684-6.158c0.27-3.049 1.424-5.955 3.32-8.362s4.455-4.214 7.362-5.199c2.908-0.985 6.040-1.106 9.016-0.349s5.666 2.361 7.744 4.614c2.078 2.254 3.454 5.062 3.961 8.081s0.122 6.12-1.107 8.925c-1.229 2.806-3.25 5.194-5.816 6.876s-5.568 2.583-8.639 2.595l0.032-0.063zM305.317 366.927c-3.189-0.014-6.278 1.105-8.712 3.158-2.736 2.307-4.444 5.6-4.752 9.158-0.179 2.208 0.191 4.426 1.077 6.458s2.26 3.815 4.001 5.191c1.741 1.377 3.796 2.305 5.982 2.702s4.437 0.251 6.554-0.425c2.116-0.676 4.033-1.861 5.58-3.451s2.679-3.535 3.293-5.664c0.614-2.129 0.692-4.376 0.229-6.543s-1.457-4.185-2.89-5.879c-1.147-1.355-2.552-2.468-4.135-3.276s-3.311-1.294-5.084-1.429h-1.141z"></path>
<path d="M435.275 534.371l20.466-248.008c0.13-1.585-0.055-3.179-0.543-4.692s-1.272-2.916-2.305-4.128c-1.032-1.211-2.295-2.208-3.714-2.932s-2.968-1.164-4.558-1.291c-1.588-0.134-3.187 0.046-4.705 0.53s-2.925 1.261-4.141 2.288c-1.215 1.027-2.216 2.283-2.943 3.697s-1.168 2.956-1.296 4.54l-20.466 248.008c-0.666 8.245-3.374 16.196-7.88 23.14s-10.671 12.668-17.941 16.651l-12.451 6.919 11.184 8.809c6.518 5.12 11.664 11.768 14.981 19.349s4.7 15.864 4.028 24.106l-27.341 331.606c-1.647 19.897-14.193 29.594-31.84 37.328-1.12 0.504-2.041 1.358-2.62 2.433-0.579 1.081-0.784 2.32-0.58 3.525s0.801 2.314 1.701 3.14c0.9 0.832 2.051 1.341 3.273 1.454 13.3 1.081 26.487-3.146 36.664-11.751s16.509-20.882 17.607-34.137l27.341-331.606c0.678-8.243-0.703-16.531-4.020-24.112s-8.467-14.229-14.989-19.343l-11.184-8.843 12.451-6.885c7.265-3.994 13.425-9.716 17.93-16.66s7.216-14.89 7.89-23.133z"></path>
</svg>
