<!-- Generated by IcoMoon.io -->
<svg version="1.1" xmlns="http://www.w3.org/2000/svg" width="43" height="32" viewBox="0 0 43 32">
<path fill="#f5f5f5" d="M21.538 32c9.226 0 16.704-0.435 16.704-0.972s-7.479-0.972-16.704-0.972c-9.226 0-16.704 0.435-16.704 0.972s7.479 0.972 16.704 0.972z"></path>
<path fill="#407bff" opacity="0.1" d="M11.829 24.241c0.010-0.077 0.050-0.148 0.111-0.197s0.138-0.073 0.216-0.067c0.737-0.011 1.428 0.508 2.068 1.066 0.142 0.123 0.296 0.25 0.456 0.121 0.049-0.041 0.085-0.095 0.103-0.156 0.028-0.1 0.028-0.206 0-0.306-0.024-0.083-0.063-0.16-0.116-0.228-0.278-0.365-0.617-0.54-0.892-0.917-0.154-0.216-0.281-0.45-0.38-0.696-0.086-0.216-0.258-0.566-0.19-0.859 0.077-0.35 0.339-0.32 0.499-0.272 0.504 0.15 0.974 0.508 1.402 0.954 0.456 0.474 0.868 1.045 1.279 1.613 0.155 0.216 0.319 0.437 0.517 0.515s0.449-0.048 0.532-0.359c0.084-0.311-0.015-0.668-0.035-0.977-0.028-0.369-0.010-0.74 0.053-1.104 0.028-0.193 0.093-0.378 0.192-0.546 0.222-0.325 0.551-0.21 0.767 0.035 0.164 0.205 0.292 0.438 0.376 0.687 0.242 0.688 0.387 1.406 0.431 2.134 0.033 0.451 0.102 0.921 0.288 1.27 0.301 0.565 0.862 0.52 1.297 0.224 0.757-0.515 1.341-1.68 1.497-2.982 0.051-0.424 0.064-0.883 0.219-1.238 0.135-0.308 0.482-0.515 0.652-0.184 0.068 0.166 0.088 0.348 0.055 0.524-0.030 0.175-0.073 0.347-0.128 0.515-0.086 0.292-0.172 0.839 0.060 1.010 0.035 0.021 0.074 0.034 0.114 0.039s0.081 0 0.12-0.013c0.762-0.158 1.47-0.873 1.935-1.87 0.169-0.375 0.297-0.767 0.384-1.169 0.056-0.246 0.079-0.509 0.141-0.753 0.040-0.192 0.12-0.373 0.236-0.532 0.296-0.354 0.98-0.187 1.019 0.571 0.023 0.439-0.094 0.868-0.137 1.298-0.027 0.268 0.14 0.266 0.264 0.258 0.594-0.060 1.12-0.658 1.586-1.28 0.554-0.739 1.167-1.7 1.924-1.728 0.172-0.006 0.459 0.016 0.563 0.282 0.048 0.163 0.048 0.336 0 0.498-0.153 0.634-0.603 0.961-0.948 1.274-0.972 0.908-1.826 1.934-2.544 3.052-0.109 0.172-0.222 0.455-0.118 0.624 0.020 0.032 0.049 0.057 0.084 0.073s0.073 0.020 0.11 0.013c0.356-0.027 0.689-0.309 1.014-0.543s0.694-0.438 1.034-0.262c0.105 0.063 0.196 0.146 0.269 0.244s0.125 0.21 0.154 0.328c0.061 0.208 0.070 0.427 0.028 0.639-0.125 0.583-0.665 0.845-0.962 1.133-0.409 0.394-0.784 0.821-1.12 1.279-0.31 0.423-0.603 0.887-0.913 1.303-1.12 1.488-2.671 1.709-4.049 1.882-1.5 0.187-3.003 0.086-4.495-0.111-1.085-0.144-2.154-0.452-3.213-0.817-0.364-0.131-0.725-0.275-1.081-0.445-0.383-0.182-0.948-0.295-1.095-1.012-0.031-0.155 0.005-0.28 0.108-0.338 0.318-0.18 0.771 0.061 1.070 0.22 0.413 0.22 0.804 0.533 1.228 0.702 0.068 0.033 0.142 0.053 0.218 0.057s0.152-0.007 0.223-0.033c0.070-0.029 0.128-0.082 0.163-0.149 0.045-0.087 0.056-0.188 0.031-0.283-0.017-0.051-0.047-0.097-0.086-0.135-0.763-0.78-1.674-1.399-2.681-1.822-0.323-0.138-0.653-0.252-0.964-0.447-0.251-0.155-0.468-0.36-0.638-0.601-0.145-0.231-0.377-0.639-0.304-1.007z"></path>
<path fill="#407bff" opacity="0.1" d="M28.308 17.928c-0.058 0.060-0.133 0.099-0.215 0.112s-0.166-0.001-0.239-0.040-0.132-0.1-0.167-0.175c-0.035-0.075-0.044-0.159-0.027-0.24 0.297-1.438 0.943-2.484 1.712-1.942 0.574 0.404-0.326 1.52-1.064 2.285z"></path>
<path fill="#407bff" opacity="0.3" d="M26.223 18.599c0.235-0.129 0.434-0.315 0.58-0.54s0.233-0.482 0.255-0.749l0.582-7.072c0.030-0.364-0.016-0.729-0.136-1.074s-0.311-0.66-0.561-0.927l-1.795-1.916c-0.099-0.106-0.174-0.231-0.222-0.368s-0.066-0.282-0.055-0.426l0.086-1.036-4.645-0.38-0.086 1.036c-0.012 0.144-0.054 0.284-0.123 0.411s-0.164 0.238-0.279 0.327l-2.085 1.6c-0.29 0.223-0.53 0.503-0.705 0.824s-0.28 0.674-0.31 1.037l-0.583 7.072c-0.022 0.266 0.022 0.534 0.129 0.779s0.273 0.46 0.483 0.626c-0.235 0.129-0.434 0.315-0.58 0.539s-0.233 0.482-0.254 0.749l-0.743 9.018c-0.035 0.429 0.102 0.854 0.381 1.182s0.677 0.532 1.108 0.568l7.668 0.628c0.213 0.018 0.427-0.007 0.631-0.072s0.392-0.169 0.555-0.307c0.163-0.138 0.297-0.306 0.395-0.496s0.157-0.396 0.174-0.608l0.744-9.018c0.023-0.266-0.021-0.534-0.127-0.78s-0.272-0.461-0.482-0.627z"></path>
<path fill="#407bff" opacity="0.3" d="M20.315 4.114l-0.066 0.799 4.644 0.381 0.066-0.799-4.644-0.381z"></path>
<path fill="#fff" opacity="0.3" d="M26.9 8.422l-1.795-1.918c0 0-1.157 0.050-0.258 1.464 0.766 1.196 2.1 1.010 2.053 0.453z"></path>
<path fill="#407bff" opacity="0.2" d="M15.178 28.126c-0.035 0.429 0.102 0.854 0.381 1.182s0.678 0.532 1.108 0.568l7.668 0.628c0.213 0.018 0.427-0.007 0.631-0.072s0.392-0.169 0.555-0.307c0.163-0.138 0.297-0.306 0.395-0.496s0.157-0.396 0.174-0.608l-10.911-0.894z"></path>
<path fill="#407bff" opacity="0.3" d="M26.565 8.588c0.2 0.214 0.354 0.468 0.45 0.744s0.134 0.57 0.11 0.862l-0.582 7.073c-0.015 0.182-0.075 0.357-0.175 0.51s-0.236 0.279-0.396 0.367l-0.678 0.374 0.607 0.48c0.144 0.113 0.257 0.259 0.33 0.427s0.103 0.35 0.088 0.532l-0.744 9.018c-0.024 0.292-0.163 0.563-0.387 0.753s-0.514 0.284-0.808 0.26l-7.668-0.628c-0.146-0.011-0.288-0.051-0.418-0.118s-0.246-0.157-0.341-0.268-0.167-0.239-0.212-0.378c-0.045-0.138-0.062-0.284-0.051-0.43l0.744-9.018c0.015-0.182 0.075-0.357 0.174-0.511s0.235-0.28 0.395-0.368l0.678-0.374-0.603-0.48c-0.144-0.113-0.257-0.26-0.33-0.427s-0.103-0.35-0.088-0.532l0.583-7.072c0.024-0.292 0.109-0.576 0.25-0.833s0.333-0.483 0.566-0.661c0.689-0.444 2.498 0.661 4.617 0.835s3.444-0.362 3.886-0.14z"></path>
<path fill="#407bff" opacity="0.2" d="M22.674 8.729c-2.118-0.172-3.929-1.28-4.618-0.836 1.206 0.661 2.585 1.071 4.584 1.235s3.924-0.54 3.924-0.54c-0.443-0.222-1.773 0.315-3.891 0.141z"></path>
<path fill="#407bff" opacity="0.2" d="M16.143 16.419c-0.022 0.266 0.022 0.534 0.129 0.779s0.273 0.46 0.483 0.626l9.467 0.773c0.235-0.129 0.434-0.315 0.58-0.539s0.233-0.482 0.255-0.749l-10.915-0.89z"></path>
<path fill="#407bff" d="M25.055 3.228l-4.63-0.381c-0.194-0.016-0.364 0.128-0.38 0.321l-0.092 1.123c-0.016 0.193 0.128 0.363 0.322 0.379l4.631 0.381c0.194 0.016 0.364-0.128 0.38-0.321l0.092-1.123c0.016-0.193-0.128-0.363-0.322-0.379z"></path>
<path fill="#fff" opacity="0.2" d="M20.51 4.497c-0.006-0-0.011-0.002-0.016-0.005s-0.010-0.006-0.013-0.010c-0.004-0.004-0.006-0.009-0.008-0.015s-0.002-0.011-0.002-0.017l0.109-1.359c0.001-0.011 0.006-0.022 0.015-0.029s0.020-0.011 0.031-0.010 0.022 0.006 0.030 0.015c0.007 0.009 0.011 0.020 0.010 0.031l-0.112 1.358c-0.001 0.011-0.006 0.021-0.014 0.029s-0.019 0.012-0.030 0.012z"></path>
<path fill="#fff" opacity="0.2" d="M21.35 4.565c-0.006-0-0.011-0.002-0.016-0.005s-0.010-0.006-0.013-0.010c-0.004-0.004-0.006-0.009-0.008-0.015s-0.002-0.011-0.002-0.017l0.112-1.358c0.001-0.011 0.007-0.022 0.015-0.029s0.020-0.011 0.031-0.010c0.006 0 0.011 0.002 0.016 0.005s0.010 0.006 0.013 0.010c0.004 0.004 0.006 0.009 0.008 0.015s0.002 0.011 0.002 0.017l-0.114 1.358c-0.001 0.011-0.006 0.021-0.014 0.028s-0.018 0.011-0.029 0.012z"></path>
<path fill="#fff" opacity="0.2" d="M22.189 4.638c-0.006-0-0.011-0.002-0.016-0.005s-0.010-0.006-0.013-0.010c-0.004-0.004-0.007-0.009-0.008-0.015s-0.002-0.011-0.002-0.017l0.112-1.358c0.001-0.011 0.007-0.022 0.015-0.029s0.020-0.011 0.031-0.011c0.006 0 0.011 0.002 0.016 0.005s0.010 0.006 0.013 0.010c0.004 0.004 0.006 0.009 0.008 0.015s0.002 0.011 0.002 0.017l-0.112 1.358c-0 0.006-0.002 0.011-0.005 0.016s-0.006 0.010-0.010 0.013c-0.004 0.004-0.009 0.006-0.015 0.008s-0.011 0.002-0.017 0.002z"></path>
<path fill="#fff" opacity="0.2" d="M23.029 4.703c-0.006-0-0.011-0.002-0.016-0.005s-0.010-0.006-0.013-0.010c-0.004-0.004-0.007-0.009-0.008-0.015s-0.002-0.011-0.002-0.017l0.112-1.358c0.001-0.011 0.006-0.022 0.015-0.029s0.020-0.011 0.031-0.010c0.006 0 0.011 0.002 0.016 0.005s0.009 0.006 0.013 0.010c0.004 0.004 0.006 0.009 0.008 0.015s0.002 0.011 0.002 0.017l-0.112 1.358c-0 0.006-0.002 0.011-0.004 0.016s-0.006 0.010-0.010 0.013-0.009 0.006-0.015 0.008c-0.005 0.002-0.011 0.002-0.017 0.002z"></path>
<path fill="#fff" opacity="0.2" d="M23.865 4.772c-0.006-0-0.011-0.002-0.016-0.005s-0.010-0.006-0.013-0.010c-0.004-0.004-0.006-0.009-0.008-0.015s-0.002-0.011-0.002-0.017l0.112-1.358c0.002-0.011 0.007-0.021 0.016-0.029s0.020-0.011 0.031-0.011c0.006 0 0.011 0.002 0.016 0.005s0.010 0.006 0.013 0.010c0.004 0.004 0.006 0.009 0.008 0.015s0.002 0.011 0.002 0.017l-0.112 1.358c-0 0.006-0.002 0.011-0.004 0.016s-0.006 0.010-0.010 0.013c-0.004 0.004-0.009 0.006-0.015 0.008s-0.011 0.002-0.017 0.002z"></path>
<path fill="#fff" opacity="0.2" d="M24.708 4.84c-0.006-0-0.011-0.002-0.016-0.005s-0.010-0.006-0.013-0.010c-0.004-0.004-0.006-0.009-0.008-0.015s-0.002-0.011-0.002-0.017l0.108-1.359c0.001-0.011 0.007-0.022 0.015-0.029s0.020-0.011 0.031-0.010c0.011 0.001 0.022 0.007 0.029 0.015s0.011 0.020 0.010 0.031l-0.111 1.359c-0.001 0.011-0.006 0.021-0.014 0.028s-0.018 0.011-0.029 0.012z"></path>
<path fill="#407bff" opacity="0.2" d="M17.575 14.056c-0.131-0.722-1.186-0.671-1.247 0.060l-0.19 2.302c-0.022 0.266 0.022 0.534 0.129 0.779s0.273 0.46 0.483 0.626c-0.235 0.129-0.434 0.315-0.58 0.539s-0.233 0.482-0.254 0.749l-0.744 9.018c-0.035 0.429 0.102 0.854 0.381 1.182s0.677 0.532 1.108 0.568l1.982 0.162c0.218 0.018 0.438-0.015 0.642-0.095s0.386-0.206 0.533-0.368 0.255-0.355 0.316-0.565c0.060-0.21 0.072-0.431 0.033-0.646l-2.592-14.312z"></path>
<path fill="#407bff" opacity="0.3" d="M25.2 25.864c-0.014 0.166-0.076 0.323-0.18 0.453s-0.244 0.227-0.402 0.277-0.329 0.054-0.489 0.008c-0.16-0.046-0.303-0.138-0.411-0.264s-0.176-0.282-0.194-0.447c-0.019-0.165 0.011-0.332 0.088-0.48s0.194-0.27 0.34-0.35c0.146-0.081 0.312-0.116 0.478-0.103 0.223 0.018 0.429 0.124 0.574 0.294s0.216 0.39 0.198 0.612z"></path>
<path fill="#407bff" opacity="0.3" d="M22.522 22.612c-0.010 0.117-0.054 0.229-0.127 0.321s-0.172 0.16-0.285 0.196c-0.112 0.036-0.233 0.038-0.346 0.006s-0.215-0.097-0.291-0.187c-0.076-0.090-0.124-0.2-0.138-0.317s0.008-0.235 0.062-0.34c0.054-0.104 0.138-0.191 0.241-0.248s0.221-0.082 0.338-0.073c0.157 0.013 0.303 0.088 0.406 0.208s0.152 0.276 0.14 0.433z"></path>
<path fill="#407bff" opacity="0.3" d="M20.029 15.373c-0.118 0.005-0.234-0.024-0.335-0.085s-0.182-0.15-0.232-0.256-0.068-0.225-0.050-0.341c0.018-0.116 0.069-0.225 0.148-0.312s0.183-0.149 0.297-0.177c0.114-0.028 0.235-0.022 0.346 0.017s0.208 0.111 0.278 0.206c0.070 0.094 0.111 0.207 0.116 0.325 0.004 0.078-0.008 0.156-0.034 0.23s-0.067 0.141-0.12 0.199c-0.053 0.058-0.116 0.105-0.187 0.138s-0.148 0.052-0.226 0.056z"></path>
<path fill="#407bff" opacity="0.3" d="M21.655 11.82c-0.083 0.004-0.166-0.016-0.238-0.059s-0.129-0.106-0.165-0.181c-0.036-0.075-0.048-0.159-0.036-0.242s0.049-0.159 0.105-0.221c0.056-0.062 0.129-0.105 0.21-0.125s0.166-0.016 0.245 0.012c0.079 0.028 0.147 0.079 0.197 0.146s0.078 0.147 0.082 0.23c0.005 0.111-0.034 0.22-0.109 0.302s-0.18 0.132-0.291 0.137z"></path>
<path fill="#407bff" opacity="0.3" d="M24.27 20.043c-0.004 0.048-0.022 0.094-0.053 0.132s-0.071 0.066-0.118 0.081c-0.046 0.015-0.096 0.016-0.143 0.002s-0.089-0.040-0.12-0.077-0.051-0.082-0.057-0.131c-0.006-0.048 0.003-0.097 0.026-0.14s0.057-0.079 0.099-0.102c0.043-0.024 0.091-0.034 0.14-0.030 0.065 0.005 0.126 0.036 0.168 0.086s0.063 0.114 0.058 0.179z"></path>
<path fill="#fff" opacity="0.7" d="M19.808 26.762h-0.041c-0.066-0.004-0.13-0.022-0.19-0.052s-0.112-0.070-0.155-0.12c-0.042-0.050-0.075-0.107-0.095-0.17s-0.027-0.128-0.022-0.193c0.008-0.096 0.044-0.188 0.104-0.264s0.14-0.133 0.232-0.165c0.092-0.031 0.19-0.036 0.284-0.012s0.179 0.074 0.244 0.145 0.109 0.16 0.125 0.255c0.016 0.095 0.004 0.193-0.035 0.281s-0.103 0.164-0.184 0.217c-0.081 0.053-0.176 0.081-0.273 0.081l0.004-0.004zM19.808 25.831c-0.098 0-0.193 0.034-0.269 0.096s-0.129 0.147-0.15 0.242c-0.021 0.095-0.008 0.195 0.035 0.283s0.116 0.157 0.205 0.198c0.089 0.041 0.189 0.051 0.284 0.027s0.179-0.079 0.239-0.156c0.060-0.078 0.091-0.173 0.088-0.271s-0.038-0.192-0.101-0.266c-0.037-0.043-0.082-0.079-0.133-0.105s-0.106-0.042-0.163-0.046l-0.036-0.002z"></path>
<path fill="#fff" opacity="0.7" d="M25.136 16.712h-0.030c-0.096-0.008-0.184-0.053-0.246-0.126s-0.093-0.167-0.085-0.263c0.008-0.096 0.054-0.184 0.127-0.246s0.168-0.092 0.264-0.084c0.096 0.008 0.184 0.053 0.247 0.126s0.093 0.167 0.085 0.263c-0.008 0.096-0.054 0.184-0.127 0.246-0.066 0.055-0.149 0.085-0.234 0.084zM24.839 16.327c-0.004 0.058 0.009 0.117 0.038 0.168s0.072 0.092 0.125 0.119c0.052 0.026 0.111 0.037 0.17 0.030s0.113-0.031 0.158-0.069c0.030-0.025 0.054-0.056 0.072-0.091s0.029-0.073 0.032-0.112-0.001-0.078-0.013-0.115c-0.012-0.037-0.031-0.072-0.057-0.101s-0.058-0.052-0.094-0.069c-0.035-0.017-0.074-0.026-0.113-0.027-0.039-0.003-0.078 0.001-0.116 0.013s-0.072 0.031-0.102 0.056c-0.030 0.025-0.054 0.056-0.072 0.091s-0.029 0.073-0.032 0.112l0.004-0.004z"></path>
<path fill="#fff" opacity="0.7" d="M19.57 9.098h-0.013c-0.044-0.004-0.086-0.026-0.114-0.060s-0.044-0.078-0.041-0.122c0.002-0.033 0.014-0.065 0.034-0.092s0.048-0.047 0.080-0.058c0.032-0.011 0.066-0.013 0.098-0.005s0.062 0.025 0.085 0.049c0.023 0.024 0.038 0.055 0.044 0.088s0.002 0.067-0.012 0.098c-0.013 0.031-0.035 0.057-0.063 0.075s-0.061 0.028-0.094 0.028l-0.004-0.001zM19.466 8.921c-0.002 0.020 0.003 0.041 0.013 0.059s0.025 0.032 0.044 0.042 0.039 0.013 0.060 0.011c0.020-0.002 0.040-0.011 0.055-0.024s0.027-0.031 0.033-0.051c0.006-0.020 0.005-0.041-0.001-0.060s-0.018-0.037-0.034-0.050-0.036-0.021-0.056-0.022c-0.014-0.001-0.028 0-0.041 0.004s-0.025 0.011-0.036 0.020c-0.011 0.009-0.019 0.020-0.025 0.032s-0.010 0.026-0.011 0.039z"></path>
<path fill="#fff" opacity="0.7" d="M23.38 13.546h-0.036c-0.057-0.004-0.112-0.020-0.163-0.046s-0.096-0.061-0.132-0.105c-0.037-0.043-0.065-0.093-0.082-0.147s-0.024-0.111-0.018-0.167c0.007-0.083 0.039-0.162 0.090-0.227s0.121-0.115 0.2-0.141 0.164-0.030 0.245-0.009c0.081 0.021 0.154 0.064 0.211 0.125s0.094 0.138 0.108 0.22c0.014 0.082 0.003 0.166-0.030 0.243s-0.088 0.141-0.158 0.187c-0.070 0.046-0.151 0.070-0.235 0.071l0.001-0.002zM23.38 12.747c-0.087-0-0.171 0.030-0.237 0.086-0.074 0.063-0.121 0.152-0.129 0.249-0.005 0.060 0.005 0.12 0.029 0.176s0.062 0.104 0.109 0.141c0.047 0.037 0.103 0.063 0.163 0.073s0.121 0.007 0.178-0.012c0.058-0.018 0.11-0.051 0.152-0.094s0.073-0.096 0.090-0.154c0.017-0.058 0.019-0.119 0.006-0.178s-0.040-0.114-0.079-0.16c-0.031-0.037-0.069-0.067-0.112-0.089s-0.090-0.035-0.138-0.039h-0.031z"></path>
<path fill="#fff" opacity="0.3" d="M26.914 17.301l0.557-6.744c0.004-0.043-0.002-0.086-0.015-0.128s-0.035-0.079-0.063-0.112c-0.028-0.033-0.062-0.060-0.101-0.080s-0.081-0.032-0.124-0.035c-0.043-0.004-0.087 0.001-0.128 0.014s-0.080 0.034-0.113 0.062-0.060 0.062-0.080 0.101c-0.020 0.038-0.032 0.080-0.035 0.123l-0.556 6.744c-0.018 0.224-0.092 0.44-0.214 0.629s-0.29 0.344-0.488 0.453l-0.339 0.188 0.304 0.24c0.177 0.139 0.317 0.32 0.407 0.526s0.128 0.431 0.11 0.656l-0.744 9.018c-0.045 0.541-0.386 0.805-0.866 1.015-0.030 0.014-0.056 0.037-0.071 0.066s-0.021 0.063-0.016 0.096c0.006 0.033 0.022 0.063 0.046 0.085s0.056 0.036 0.089 0.040c0.362 0.029 0.72-0.086 0.997-0.32s0.449-0.568 0.479-0.928l0.744-9.018c0.018-0.224-0.019-0.45-0.109-0.656s-0.23-0.387-0.408-0.526l-0.304-0.24 0.339-0.187c0.198-0.109 0.365-0.264 0.488-0.453s0.196-0.405 0.214-0.629z"></path>
<path fill="#407bff" opacity="0.3" d="M35.856 27.782c-0.093-0.421-1.254-0.172-1.495-0.133-0.467 0.084-0.924 0.216-1.365 0.392-0.485 0.19-1.048 0.469-1.551 0.18-0.29-0.167 0.718-0.496 0.809-0.529 0.428-0.15 0.842-0.339 1.235-0.565 0.159-0.094 0.468-0.32 0.335-0.55-0.11-0.19-0.506-0.172-0.746-0.143-0.728 0.089-1.443 0.268-2.127 0.532-0.666 0.264-1.317 0.561-1.952 0.891-0.246 0.138-0.514 0.234-0.792 0.284-0.303 0.043-0.674-0.022-0.794-0.189s0.034-0.363 0.070-0.532c0.050-0.201 0.029-0.413-0.060-0.601-0.059-0.126-0.157-0.229-0.28-0.294-0.328-0.172-0.824-0.108-1.154 0.027-0.214 0.090-0.409 0.219-0.576 0.38-0.337 0.312-0.573 0.717-0.679 1.164-0.027 0.14-0.081 0.273-0.159 0.392s-0.179 0.221-0.298 0.301c-0.462 0.31-1.308 0.292-1.955 0.136-1.13-0.267-1.991-0.891-2.199-1.596-0.101-0.336-0.15-0.687-0.603-0.818-0.293-0.086-0.906-0.026-0.775 0.344 0.048 0.101 0.11 0.195 0.184 0.278 0.12 0.157 0.247 0.454-0.109 0.549-0.115 0.024-0.234 0.030-0.351 0.017-1.144-0.076-2.197-0.457-2.879-0.993-0.223-0.174-0.411-0.388-0.557-0.63-0.081-0.133-0.11-0.276-0.199-0.408-0.085-0.126-0.204-0.226-0.345-0.286-0.439-0.188-1.472-0.090-1.544 0.322-0.039 0.223 0.101 0.466 0.172 0.678 0.013 0.027 0.016 0.057 0.009 0.086-0.021 0.054-0.103 0.070-0.172 0.074-0.923 0.061-1.818-0.296-2.592-0.669-0.82-0.395-1.723-0.909-2.863-0.915-0.236-0.011-0.472 0.016-0.699 0.080-0.058 0.015-0.111 0.043-0.157 0.081-0.028 0.029-0.046 0.066-0.053 0.105s-0.001 0.080 0.015 0.117c0.037 0.076 0.092 0.141 0.16 0.191 0.345 0.28 0.827 0.393 1.267 0.538 1.306 0.422 2.569 0.967 3.772 1.628 0.121 0.068 0.337 0.225 0.166 0.344s-0.517 0.042-0.721 0.009c-0.37-0.060-0.726-0.156-1.087-0.247-0.477-0.12-1.034-0.229-1.551-0.13-0.273 0.052-0.517 0.164-0.645 0.315-0.044 0.044-0.073 0.101-0.083 0.163s-0 0.125 0.028 0.181c0.177 0.315 0.986 0.451 1.428 0.601 0.566 0.192 1.119 0.42 1.657 0.681 0.459 0.227 0.886 0.475 1.351 0.697 1.662 0.794 3.983 0.897 6.058 0.974 2.253 0.086 4.516 0.013 6.763-0.112 1.637-0.091 3.244-0.271 4.848-0.482 0.461-0.060 0.919-0.134 1.378-0.197 0.466-0.053 0.927-0.144 1.378-0.272 0.162-0.041 0.313-0.117 0.444-0.222 0.123-0.114 0.162-0.264-0.059-0.307-0.462-0.092-0.937 0.013-1.389 0.094-0.507 0.093-1.009 0.2-1.506 0.32-0.227 0.060-0.457 0.107-0.689 0.14-0.234 0.033-0.471 0.018-0.699-0.045-0.074-0.023-0.155-0.064-0.159-0.13s0.058-0.106 0.122-0.131c0.93-0.368 1.917-0.601 2.911-0.816 0.675-0.146 1.361-0.235 2.041-0.35 0.619-0.104 1.272-0.128 1.809-0.52 0.107-0.069 0.19-0.169 0.238-0.286 0.023-0.060 0.029-0.126 0.016-0.19z"></path>
<path fill="#407bff" opacity="0.3" d="M9.197 24.304c-0.252-0.715-1.152-1.982-1.341-1.234-0.102 0.42 1.341 1.234 1.341 1.234z"></path>
<path fill="#407bff" opacity="0.3" d="M31.785 25.713c0.481-0.437 1.080-0.697 1.158-0.313 0.072 0.364-1.158 0.313-1.158 0.313z"></path>
<path fill="#407bff" opacity="0.3" d="M12.062 22.236c-0.329-0.172-0.586-0.447-0.393-0.562s0.393 0.562 0.393 0.562z"></path>
</svg>
